<svg xmlns="http://www.w3.org/2000/svg" viewBox="0 0 200 210" width="200" height="210">
  <rect width="200" height="210" fill="#060606"/>
  <g fill="#FFFFFF" fill-rule="evenodd">
    <path d="M 45.8,23.1 L 45.8,42.3 L 46.9,42.3 L 46.9,41.5 L 47.7,40.0 L 47.7,38.8 L 48.1,37.6 L 48.9,36.0 L 50.0,33.7 L 51.1,32.5 L 51.1,32.1 L 51.9,31.3 L 52.3,31.3 L 53.4,30.2 L 54.6,29.8 L 55.7,29.4 L 57.3,29.0 L 58.8,28.6 L 62.6,28.2 L 118.3,28.2 L 119.1,29.0 L 118.7,101.1 L 118.7,102.6 L 63.7,102.6 L 62.2,102.3 L 61.1,101.9 L 60.3,101.5 L 58.8,99.9 L 58.4,99.1 L 58.4,97.9 L 58.0,97.2 L 56.9,97.2 L 56.9,112.8 L 58.0,112.8 L 58.0,111.7 L 58.4,110.5 L 59.2,109.3 L 59.9,108.5 L 62.2,107.4 L 64.5,107.0 L 118.3,107.0 L 119.1,107.7 L 119.1,175.9 L 118.7,180.2 L 118.3,182.2 L 117.9,183.4 L 117.6,184.5 L 117.2,185.3 L 115.3,187.3 L 114.1,188.1 L 113.4,188.5 L 112.2,188.8 L 110.7,189.2 L 106.5,189.2 L 106.5,190.8 L 149.2,190.8 L 149.2,189.6 L 147.7,189.6 L 147.3,189.2 L 144.3,189.2 L 143.1,188.8 L 142.0,188.5 L 141.2,188.1 L 139.3,186.1 L 138.5,184.9 L 138.2,183.8 L 137.8,182.6 L 137.4,180.2 L 137.4,36.0 L 137.8,32.9 L 138.2,31.3 L 138.5,30.2 L 139.7,27.8 L 141.2,26.2 L 142.4,25.5 L 144.3,24.7 L 146.2,24.3 L 149.2,24.3 L 149.2,23.1 Z"/>
  </g>
</svg>